<?xml version="1.0" encoding="UTF-8" standalone="no"?>
<!DOCTYPE svg PUBLIC "-//W3C//DTD SVG 1.1//EN" "http://www.w3.org/Graphics/SVG/1.1/DTD/svg11.dtd">
<svg width="100%" height="100%" viewBox="0 0 256 64" version="1.1" xmlns="http://www.w3.org/2000/svg" xmlns:xlink="http://www.w3.org/1999/xlink" xml:space="preserve" xmlns:serif="http://www.serif.com/" style="fill-rule:evenodd;clip-rule:evenodd;stroke-linejoin:round;stroke-miterlimit:1.41421;">
    <g transform="matrix(-0.00468522,-3.46752e-34,-3.46752e-34,-0.00468522,54.1485,62.4794)">
        <g id="Layer2">
            <path d="M5430,12899C4945,12852 4565,12763 4209,12614C4150,12589 4094,12563 4085,12556C4069,12545 4057,12547 4002,12572C3886,12625 3799,12642 3655,12643C3516,12643 3439,12630 3302,12584C3063,12505 2783,12326 2555,12108C2498,12054 2445,12010 2436,12010C2384,12010 2247,11905 2080,11738C1984,11642 1962,11624 1945,11631C1880,11657 1786,11629 1735,11568C1699,11525 1656,11436 1662,11418C1668,11402 2016,11227 2181,11156C2438,11045 2629,10982 2904,10915C3081,10872 3196,10835 3345,10772C3623,10656 3806,10538 4185,10235C4381,10078 4489,10017 4613,9995C4685,9982 4685,9982 4635,9981C4566,9980 4472,10004 4397,10041C4320,10080 4243,10135 4020,10313C3800,10489 3646,10591 3455,10685C3278,10773 3131,10824 2885,10886C2526,10976 2287,11066 1902,11256C1763,11325 1645,11378 1640,11375C1622,11364 1612,11303 1621,11255C1637,11169 1689,11083 1788,10978C1840,10923 1842,10919 1830,10891C1824,10874 1821,10848 1825,10831C1829,10811 1825,10789 1812,10763C1801,10742 1789,10709 1785,10690C1777,10652 1773,10650 1844,10708C1870,10729 1873,10729 1885,10714C1895,10700 1893,10689 1873,10654C1850,10613 1827,10516 1838,10505C1841,10502 1854,10517 1868,10538C1912,10604 1952,10641 1967,10629C1977,10620 1976,10613 1961,10591C1902,10508 1870,10407 1888,10361C1896,10337 1898,10338 1933,10391C1979,10460 2056,10547 2064,10539C2068,10536 2059,10509 2046,10479C2024,10432 2006,10328 2017,10317C2019,10315 2054,10347 2096,10388C2181,10472 2206,10474 2166,10394C2138,10338 2124,10256 2137,10221C2146,10198 2147,10199 2178,10246C2219,10310 2295,10385 2305,10371C2308,10365 2305,10338 2296,10312C2274,10243 2267,10196 2275,10161L2281,10131L2341,10206C2427,10313 2457,10321 2421,10226C2397,10162 2390,10089 2403,10040L2412,10006L2442,10063C2477,10127 2559,10215 2572,10202C2577,10197 2571,10172 2559,10144C2531,10081 2522,9965 2542,9926L2556,9899L2580,9957C2605,10020 2646,10084 2677,10113C2701,10134 2735,10126 2724,10101C2680,9998 2671,9924 2694,9845L2711,9787L2750,9866C2792,9952 2867,10047 2882,10032C2887,10027 2876,9980 2855,9918C2821,9815 2812,9740 2829,9696C2836,9679 2839,9681 2858,9712C2899,9779 3080,9934 3080,9903C3080,9899 3061,9858 3039,9813C3013,9762 2995,9713 2992,9681C2984,9596 2994,9591 3048,9657C3106,9725 3185,9800 3201,9800C3207,9800 3199,9785 3184,9768C3123,9695 3107,9621 3136,9552L3151,9515L3170,9554C3199,9612 3237,9658 3280,9686C3336,9724 3347,9708 3305,9650C3241,9563 3226,9486 3256,9410L3273,9369L3307,9439C3339,9506 3388,9558 3448,9589C3470,9601 3480,9588 3459,9574C3453,9571 3439,9547 3428,9523C3413,9489 3410,9467 3415,9431C3426,9352 3433,9351 3482,9426C3537,9510 3567,9540 3575,9518C3578,9510 3571,9485 3558,9464C3542,9436 3535,9410 3535,9368C3535,9301 3546,9286 3569,9320C3610,9383 3683,9450 3696,9437C3699,9434 3694,9407 3685,9376C3675,9341 3671,9307 3675,9287C3688,9227 3695,9225 3723,9271C3777,9364 3837,9390 3819,9313C3807,9260 3808,9199 3821,9160L3833,9128L3857,9176C3887,9236 3923,9275 3943,9267C3955,9263 3956,9252 3948,9206C3942,9175 3941,9138 3945,9123L3951,9097L4000,9145C4034,9178 4054,9191 4065,9186C4077,9182 4080,9174 4075,9162C4071,9153 4066,9128 4063,9108C4056,9061 4072,9058 4136,9096C4173,9118 4181,9120 4186,9106C4189,9098 4186,9075 4180,9055C4173,9035 4171,9016 4174,9013C4177,9009 4202,9017 4229,9030C4295,9060 4304,9053 4295,8975L4289,8912L4361,8932C4417,8948 4438,8950 4457,8941L4480,8930L4456,8891L4431,8852L4491,8868C4563,8888 4576,8880 4561,8825C4551,8790 4552,8788 4573,8794C4629,8810 4675,8810 4695,8795C4712,8782 4713,8776 4703,8749C4693,8723 4693,8720 4708,8724C4789,8746 4820,8739 4820,8696C4820,8677 4825,8675 4854,8678C4881,8681 4907,8671 4985,8625C5228,8482 5443,8272 5609,8015C5652,7949 5683,7917 5783,7835C5851,7780 5923,7720 5945,7702L5985,7668L5935,7702C5908,7721 5856,7757 5819,7783L5754,7829L5735,7794C5724,7774 5667,7711 5607,7654C5510,7561 5495,7550 5462,7550C5291,7550 5050,7455 4875,7321C4784,7252 4657,7126 4595,7045C4546,6982 4538,6963 4520,6884C4493,6761 4493,6624 4521,6542C4549,6458 4618,6383 4702,6344C4759,6318 4775,6315 4870,6315C4955,6315 4981,6319 5004,6333C5031,6351 5031,6352 5025,6429C5003,6674 5176,6884 5482,6984C5621,7029 5702,7041 5850,7038C5963,7035 5975,7037 5978,7053C5982,7075 5928,7127 5853,7172C5824,7190 5800,7207 5800,7211C5800,7214 5832,7232 5870,7250C6041,7328 6181,7288 6287,7131C6323,7076 6380,6938 6380,6904C6380,6897 6339,6891 6268,6887C6143,6881 6057,6859 5947,6804C5852,6757 5745,6681 5676,6611L5617,6552L5716,6592C5958,6689 6314,6744 6555,6721C6602,6716 6581,6713 6460,6708C6114,6693 5802,6616 5505,6469C5298,6368 5245,6336 5242,6313C5238,6288 5278,6255 5360,6214C5390,6199 5429,6173 5445,6155C5514,6082 5683,6049 6010,6047C6252,6045 6438,6053 6675,6076C6758,6083 6828,6090 6833,6090C6837,6090 6840,6083 6840,6073C6840,6040 6904,5958 7001,5867L7099,5774L7028,5739C6929,5692 6818,5619 6766,5566C6619,5419 6662,5259 6873,5172C6915,5154 6963,5137 6979,5134C7006,5128 7010,5131 7033,5176C7085,5278 7072,5273 7281,5275C7433,5276 7478,5280 7540,5297C7595,5312 7617,5315 7622,5306C7626,5300 7642,5259 7656,5215C7717,5030 7758,4983 7867,4971L7925,4965L7958,4865C8036,4631 8119,4259 8159,3970C8191,3733 8193,3696 8179,3610C8168,3540 8168,3521 8182,3462C8202,3379 8237,3316 8302,3245L8351,3191L8341,3138C8330,3075 8341,3002 8370,2953C8381,2934 8390,2914 8390,2908C8390,2902 8360,2844 8323,2781C7764,1813 6935,1174 5940,945C5842,922 5619,888 5612,895C5610,897 5626,903 5647,910C5711,931 5857,1007 5938,1062C6095,1169 6255,1359 6330,1525C6531,1972 6410,2486 6042,2759C5903,2861 5762,2922 5573,2962C5478,2982 5437,2985 5235,2985C5021,2984 4997,2983 4893,2958C4370,2834 4005,2469 3894,1960C3865,1827 3867,1530 3898,1391C3976,1042 4178,706 4441,485C4560,385 4646,330 4795,259C4956,182 5063,150 5270,115C5348,101 5882,98 6022,109C6830,176 7584,482 8255,1015C8766,1421 9246,1985 9582,2577C9630,2662 9675,2729 9690,2738C9856,2841 9980,2952 10059,3069C10191,3264 10260,3490 10260,3729C10260,3853 10281,3941 10339,4065C10469,4342 10768,4664 11155,4942C11266,5022 11274,5039 11275,5195C11275,5299 11273,5308 11245,5358C11190,5459 11076,5538 10935,5575C10903,5583 10867,5590 10857,5590C10847,5590 10790,5545 10732,5491C10525,5298 10245,5075 9956,4873C9831,4785 9755,4737 9775,4757C9781,4763 9855,4825 9940,4896C10121,5045 10285,5186 10608,5468L10842,5672L10836,5728C10830,5786 10825,5844 10815,5980C10812,6021 10807,6080 10805,6110C10803,6140 10798,6197 10795,6235C10781,6417 10732,6937 10710,7138C10604,8104 10551,8382 10400,8749C10250,9113 10042,9438 9749,9767C9573,9964 9272,10232 9048,10390C9005,10420 8970,10450 8970,10457C8970,10463 8957,10473 8941,10478C8925,10484 8909,10498 8905,10510C8901,10521 8891,10530 8882,10529C8847,10526 8840,10531 8840,10560C8840,10593 8838,10595 8809,10579C8793,10571 8782,10574 8754,10591L8719,10612L8742,10637L8765,10663L8710,10658C8670,10654 8649,10657 8631,10668L8607,10684L8646,10702L8685,10719L8655,10730C8639,10736 8601,10740 8570,10739C8539,10738 8504,10743 8490,10750C8465,10763 8466,10764 8535,10795C8589,10820 8601,10828 8585,10833C8534,10848 8490,10849 8430,10836C8369,10823 8363,10824 8325,10842L8286,10863L8343,10916C8374,10945 8400,10972 8400,10976C8400,10991 8234,10972 8189,10953C8149,10935 8141,10934 8117,10947C8102,10954 8090,10965 8090,10971C8090,10977 8117,11010 8150,11044C8183,11079 8210,11110 8210,11113C8210,11117 8182,11120 8147,11120C8080,11120 8000,11100 7938,11069C7900,11050 7870,11052 7870,11075C7870,11082 7894,11116 7922,11151L7974,11213L7880,11206C7828,11202 7749,11191 7706,11181C7631,11163 7600,11163 7600,11180C7600,11191 7657,11262 7688,11288L7715,11311L7640,11306C7595,11304 7536,11291 7494,11276C7417,11248 7402,11246 7381,11259C7365,11269 7376,11293 7423,11354L7454,11393L7394,11386C7362,11382 7302,11367 7262,11354C7192,11331 7150,11324 7150,11336C7150,11339 7159,11353 7170,11367C7181,11382 7189,11394 7187,11396C7185,11398 7148,11395 7104,11389C6834,11354 6489,11378 6335,11443C6269,11470 6232,11497 6211,11531L6193,11560L6132,11456C5975,11190 5734,10935 5525,10816L5495,10798L5524,10822C5765,11014 5868,11131 6100,11480C6321,11813 6486,12013 6649,12145C6726,12207 6792,12292 6839,12390C6871,12457 6875,12474 6875,12545C6875,12637 6861,12669 6800,12729C6733,12794 6583,12857 6450,12875C6237,12906 5642,12919 5430,12899ZM3977,12159C4014,12148 4048,12135 4052,12132C4056,12128 3977,12124 3877,12124C3675,12122 3597,12108 3476,12051C3326,11979 3197,11804 3170,11636C3148,11497 3200,11334 3306,11205C3350,11152 3365,11110 3340,11110C3323,11110 3247,11198 3210,11260C3094,11455 3099,11698 3221,11887C3320,12040 3485,12146 3675,12180C3749,12193 3898,12183 3977,12159ZM4344,11885C4362,11858 4390,11801 4405,11760C4430,11693 4434,11671 4434,11565C4434,11465 4431,11434 4411,11380C4343,11187 4196,11044 3991,10972C3923,10949 3901,10946 3780,10946C3680,10946 3636,10950 3610,10962L3575,10977L3649,10979C3798,10981 3969,11016 4085,11066L4125,11084L4078,11091C4052,11095 4007,11106 3978,11115C3915,11136 3765,11212 3730,11241C3716,11253 3733,11246 3770,11227C3864,11176 3948,11143 4049,11116L4138,11092L4170,11112C4188,11122 4223,11153 4249,11179C4382,11316 4413,11506 4344,11767L4328,11828L4266,11791C4155,11724 4013,11665 3852,11620C3711,11580 3703,11583 3830,11629C3954,11673 4118,11754 4212,11817C4299,11875 4305,11883 4292,11917C4267,11987 4267,11987 4290,11960C4302,11946 4326,11913 4344,11885ZM3465,11604C3479,11595 3500,11570 3511,11549C3586,11401 3419,11272 3311,11395C3205,11516 3333,11691 3465,11604ZM5338,9141C5378,9113 5474,9067 5575,9027C5922,8891 6526,8785 7205,8740C7299,8734 7395,8727 7420,8725C7445,8723 7490,8721 7520,8720L7575,8718L7535,8710C7379,8678 6857,8658 6620,8675C6329,8696 6016,8760 5814,8840C5636,8911 5450,9021 5341,9120C5295,9162 5294,9173 5338,9141ZM8337,9068C8377,9026 8420,8952 8454,8866L8481,8798L8455,8637C8272,7506 7934,6575 7566,6183C7502,6115 7482,6100 7435,6085C7378,6068 7329,6070 7303,6091C7281,6110 7288,6116 7329,6112C7535,6092 7780,6499 8038,7290C8202,7793 8420,8636 8420,8767C8420,8836 8382,8951 8331,9035C8287,9106 8289,9117 8337,9068ZM7474,8220C7404,8010 7243,7487 7150,7170C7110,7035 7074,6921 7070,6916C7041,6886 6743,6863 6615,6881C6500,6898 6514,6905 6663,6905C6804,6906 6890,6916 6986,6945L7037,6960L7069,7082C7124,7290 7198,7525 7282,7760C7363,7989 7520,8393 7525,8388C7527,8386 7504,8311 7474,8220ZM5443,2326C5496,2312 5547,2296 5557,2290C5573,2280 5573,2279 5555,2285C5418,2330 5263,2343 5165,2316C4961,2262 4809,2078 4715,1770C4699,1716 4691,1700 4695,1726C4704,1799 4750,1943 4791,2026C4925,2299 5147,2401 5443,2326ZM5387,1954C5424,1946 5469,1930 5486,1919C5560,1874 5571,1757 5509,1678C5465,1623 5396,1580 5351,1580C5290,1580 5211,1640 5210,1686C5210,1718 5172,1760 5144,1760C5130,1760 5106,1753 5090,1745C5053,1726 5053,1731 5086,1789C5132,1868 5178,1917 5232,1944C5293,1975 5298,1975 5387,1954ZM5821,1595C5766,1470 5659,1366 5555,1335C5487,1314 5387,1316 5301,1340C5207,1367 5163,1389 5120,1436C5086,1472 5086,1473 5115,1453C5211,1388 5345,1340 5431,1340C5495,1340 5587,1370 5644,1409C5698,1446 5775,1535 5810,1602C5841,1661 5848,1657 5821,1595Z" style="fill:rgb(255,132,4);fill-rule:nonzero;stroke:rgb(6,1,1);stroke-width:42.69px;"/>
        </g>
    </g>
    <g transform="matrix(1,0,0,1,-19.3025,-0.889175)">
        <g id="title">
            <text x="62.366px" y="48.601px" style="font-family:'GillSansMT', 'Gill Sans MT', sans-serif;font-size:46px;fill:rgb(255,132,4);">T<tspan x="84.401px 102.616px " y="48.601px 48.601px ">ra</tspan>neleon</text>
        </g>
    </g>
</svg>
